<?xml version="1.0" encoding="UTF-8" standalone="no"?>
<svg
   xmlns:dc="http://purl.org/dc/elements/1.1/"
   xmlns:cc="http://creativecommons.org/ns#"
   xmlns:rdf="http://www.w3.org/1999/02/22-rdf-syntax-ns#"
   xmlns:svg="http://www.w3.org/2000/svg"
   xmlns="http://www.w3.org/2000/svg"
   xmlns:xlink="http://www.w3.org/1999/xlink"
   id="svg8"
   version="1.1"
   viewBox="0 0 33.866666 33.866668"
   height="128"
   width="128">
  <defs
     id="defs2">
    <linearGradient
       id="linearGradient874">
      <stop
         id="stop870"
         offset="0"
         style="stop-color:#001030;stop-opacity:1;" />
      <stop
         id="stop872"
         offset="1"
         style="stop-color:#001030;stop-opacity:0;" />
    </linearGradient>
    <linearGradient
       gradientUnits="userSpaceOnUse"
       y2="367.95983"
       x2="303.13949"
       y1="367.95983"
       x1="177.40949"
       id="linearGradient876"
       xlink:href="#linearGradient874" />
  </defs>
  <metadata
     id="metadata5">
    <rdf:RDF>
      <cc:Work
         rdf:about="">
        <dc:format>image/svg+xml</dc:format>
        <dc:type
           rdf:resource="http://purl.org/dc/dcmitype/StillImage" />
        <dc:title></dc:title>
      </cc:Work>
    </rdf:RDF>
  </metadata>
  <g
     transform="translate(0,-263.13331)"
     id="layer1">
    <path
       id="path4492"
       d="M 33.866669,280.06665 A 16.933334,16.933334 0 0 1 16.933334,296.99998 16.933334,16.933334 0 0 1 0,280.06665 16.933334,16.933334 0 0 1 16.933334,263.13332 16.933334,16.933334 0 0 1 33.866669,280.06665 Z"
       style="fill:#ffffc0;fill-opacity:1;stroke:none;stroke-width:0.50466812;stroke-linecap:butt;stroke-miterlimit:4;stroke-dasharray:none;stroke-opacity:1" />
    <g
       id="text899"
       style="font-size:5.64444494px;line-height:6.61458349px;font-family:Candara;-inkscape-font-specification:Candara;letter-spacing:0px;word-spacing:0px;fill:none;stroke:#000000;stroke-width:0.26458335px;stroke-linecap:butt;stroke-linejoin:miter;stroke-opacity:1" />
    <g
       id="text1010"
       style="font-style:normal;font-variant:normal;font-weight:bold;font-stretch:normal;font-size:18.34444427px;line-height:6.61458349px;font-family:'Source Sans Pro';-inkscape-font-specification:'Source Sans Pro Bold';letter-spacing:0px;word-spacing:0px;fill:none;stroke:#000000;stroke-width:0.26458335px;stroke-linecap:butt;stroke-linejoin:miter;stroke-opacity:1"
       aria-label="6">
      <path
         id="path50"
         style="font-style:normal;font-variant:normal;font-weight:900;font-stretch:normal;font-size:18.34444427px;font-family:'Source Sans Pro';-inkscape-font-specification:'Source Sans Pro Heavy';fill:#001030;fill-opacity:1;stroke:none;stroke-width:0.26458335px;stroke-opacity:1"
         d="m 15.265048,284.06748 c 2.201333,0 4.035777,-1.46755 4.035777,-3.9624 0,-2.49484 -1.540933,-3.59551 -3.522133,-3.59551 -0.623711,0 -1.614311,0.40358 -2.182989,1.1557 0.128411,-2.34809 1.008945,-3.1369 2.1463,-3.1369 0.6604,0 1.394178,0.40358 1.761067,0.80716 l 1.651,-1.87113 c -0.770467,-0.77047 -1.9812,-1.46756 -3.6322,-1.46756 -2.494845,0 -4.806245,2.01789 -4.806245,6.23711 0,4.21922 2.3114,5.83353 4.549423,5.83353 z m -0.07338,-2.34808 c -0.568678,0 -1.265767,-0.38524 -1.522589,-2.01789 0.366889,-0.69709 0.935567,-0.9906 1.4859,-0.9906 0.6604,0 1.284111,0.27516 1.284111,1.39417 0,1.22908 -0.587022,1.61432 -1.247422,1.61432 z" />
    </g>
    <g
       id="text1010-0"
       style="font-style:normal;font-variant:normal;font-weight:bold;font-stretch:normal;font-size:12.70000076px;line-height:6.61458349px;font-family:'Source Sans Pro';-inkscape-font-specification:'Source Sans Pro Bold';letter-spacing:0px;word-spacing:0px;fill:none;stroke:#000000;stroke-width:0.26458335px;stroke-linecap:butt;stroke-linejoin:miter;stroke-opacity:1"
       transform="rotate(-6.0941666)"
       aria-label="2">
      <path
         id="path53"
         style="font-style:normal;font-variant:normal;font-weight:bold;font-stretch:normal;font-size:11.28888893px;font-family:'Source Sans Pro';-inkscape-font-specification:'Source Sans Pro Bold';fill:#001030;fill-opacity:0.97254902;stroke:none;stroke-width:0.26458335px;stroke-opacity:1"
         d="m -7.2239346,284.35257 h 5.0461333 v -1.39982 H -3.622779 c -0.3386667,0 -0.8353778,0.0452 -1.1966223,0.0903 1.1627556,-1.2192 2.2916445,-2.50613 2.2916445,-3.71405 0,-1.37724 -0.9595556,-2.28035 -2.3706667,-2.28035 -1.0272889,0 -1.6933333,0.38382 -2.4045333,1.14018 l 0.9031111,0.89182 c 0.3612444,-0.38382 0.7563555,-0.73378 1.2756444,-0.73378 0.6208889,0 1.016,0.38382 1.016,1.08373 0,1.016 -1.2869333,2.24649 -3.1157333,3.97369 z" />
    </g>
    <g
       id="text1010-0-8"
       style="font-style:normal;font-variant:normal;font-weight:bold;font-stretch:normal;font-size:10.58333302px;line-height:6.61458349px;font-family:'Source Sans Pro';-inkscape-font-specification:'Source Sans Pro Bold';letter-spacing:0px;word-spacing:0px;fill:none;stroke:#000000;stroke-width:0.26458335px;stroke-linecap:butt;stroke-linejoin:miter;stroke-opacity:1"
       transform="rotate(-11.032547)"
       aria-label="8">
      <path
         id="path56"
         style="font-style:normal;font-variant:normal;font-weight:600;font-stretch:normal;font-size:9.87777805px;font-family:'Source Sans Pro';-inkscape-font-specification:'Source Sans Pro Semi-Bold';fill:#001030;fill-opacity:0.94117647;stroke:none;stroke-width:0.26458335px;stroke-opacity:1"
         d="m -38.920025,290.76346 c 1.274233,0 2.123722,-0.74083 2.123722,-1.70885 0,-0.83962 -0.503767,-1.30387 -1.086556,-1.62984 v -0.0395 c 0.404989,-0.29633 0.839611,-0.81985 0.839611,-1.44215 0,-1.01742 -0.721077,-1.69898 -1.847144,-1.69898 -1.086556,0 -1.896533,0.65193 -1.896533,1.66934 0,0.66181 0.385233,1.12607 0.869244,1.47179 v 0.0395 c -0.592667,0.31609 -1.135944,0.82974 -1.135944,1.61008 0,1.01741 0.908755,1.72861 2.1336,1.72861 z m 0.414866,-3.66465 c -0.701322,-0.27658 -1.264355,-0.55316 -1.264355,-1.18534 0,-0.54328 0.375355,-0.85936 0.859366,-0.85936 0.582789,0 0.928512,0.40498 0.928512,0.95814 0,0.39511 -0.187678,0.75071 -0.523523,1.08656 z m -0.395111,2.85467 c -0.642055,0 -1.1557,-0.41486 -1.1557,-1.03716 0,-0.48401 0.286456,-0.889 0.681567,-1.17546 0.849489,0.34572 1.5113,0.59267 1.5113,1.27423 0,0.58279 -0.434622,0.93839 -1.037167,0.93839 z" />
    </g>
    <g
       id="text1010-0-8-6"
       style="font-style:normal;font-variant:normal;font-weight:bold;font-stretch:normal;font-size:10.58333302px;line-height:6.61458349px;font-family:'Source Sans Pro';-inkscape-font-specification:'Source Sans Pro Bold';letter-spacing:0px;word-spacing:0px;fill:none;stroke:#000000;stroke-width:0.26458335px;stroke-linecap:butt;stroke-linejoin:miter;stroke-opacity:1"
       transform="rotate(6.5007693)"
       aria-label="3">
      <path
         id="path59"
         style="font-style:normal;font-variant:normal;font-weight:600;font-stretch:normal;font-size:8.46666718px;font-family:'Source Sans Pro';-inkscape-font-specification:'Source Sans Pro Semi-Bold';fill:#001030;fill-opacity:0.87843137;stroke:none;stroke-width:0.26458335px;stroke-opacity:1"
         d="m 39.301734,283.63709 c 1.032933,0 1.888066,-0.57573 1.888066,-1.55786 0,-0.7112 -0.4826,-1.1684 -1.1176,-1.33774 v -0.0339 c 0.5842,-0.2286 0.9398,-0.635 0.9398,-1.23614 0,-0.9144 -0.7112,-1.4224 -1.744133,-1.4224 -0.643467,0 -1.159934,0.27093 -1.617134,0.67733 l 0.499534,0.60114 c 0.3302,-0.3048 0.6604,-0.508 1.083733,-0.508 0.491067,0 0.795867,0.27093 0.795867,0.71967 0,0.49953 -0.347133,0.8636 -1.405467,0.8636 v 0.7112 c 1.227667,0 1.583267,0.3556 1.583267,0.9144 0,0.508 -0.4064,0.8128 -0.9906,0.8128 -0.541867,0 -0.956734,-0.26247 -1.278467,-0.59267 l -0.465667,0.62653 c 0.381,0.42334 0.956734,0.762 1.828801,0.762 z" />
    </g>
    <g
       id="text1010-0-8-2"
       style="font-style:normal;font-variant:normal;font-weight:bold;font-stretch:normal;font-size:10.58333302px;line-height:6.61458349px;font-family:'Source Sans Pro';-inkscape-font-specification:'Source Sans Pro Bold';letter-spacing:0px;word-spacing:0px;fill:none;stroke:#000000;stroke-width:0.26458335px;stroke-linecap:butt;stroke-linejoin:miter;stroke-opacity:1"
       transform="rotate(8.3560224)"
       aria-label="1">
      <path
         id="path62"
         style="font-style:normal;font-variant:normal;font-weight:600;font-stretch:normal;font-size:8.46666718px;font-family:'Source Sans Pro';-inkscape-font-specification:'Source Sans Pro Semi-Bold';fill:#001030;fill-opacity:0.75294118;stroke:none;stroke-width:0.26458335px;stroke-opacity:1"
         d="m 46.404682,268.90189 h 3.242734 v -0.79587 h -1.058334 v -4.58893 h -0.728133 c -0.338667,0.2032 -0.7112,0.33866 -1.2446,0.44026 v 0.6096 h 0.9906 v 3.53907 h -1.202267 z" />
    </g>
    <g
       id="text1010-0-8-4"
       style="font-style:normal;font-variant:normal;font-weight:bold;font-stretch:normal;font-size:10.58333302px;line-height:6.61458349px;font-family:'Source Sans Pro';-inkscape-font-specification:'Source Sans Pro Bold';letter-spacing:0px;word-spacing:0px;fill:none;stroke:#000000;stroke-width:0.26458335px;stroke-linecap:butt;stroke-linejoin:miter;stroke-opacity:1"
       transform="rotate(-11.889483)"
       aria-label="8">
      <path
         id="path65"
         style="font-style:normal;font-variant:normal;font-weight:600;font-stretch:normal;font-size:8.46666718px;font-family:'Source Sans Pro';-inkscape-font-specification:'Source Sans Pro Semi-Bold';fill:#001030;fill-opacity:0.62745098;stroke:none;stroke-width:0.26458335px;stroke-opacity:1"
         d="m -31.972924,273.59965 c 1.0922,0 1.820334,-0.635 1.820334,-1.46474 0,-0.71966 -0.4318,-1.1176 -0.931334,-1.397 v -0.0339 c 0.347134,-0.254 0.719667,-0.70274 0.719667,-1.23614 0,-0.87206 -0.618067,-1.45626 -1.583267,-1.45626 -0.931333,0 -1.6256,0.5588 -1.6256,1.43086 0,0.56727 0.3302,0.9652 0.745067,1.26154 v 0.0339 c -0.508,0.27094 -0.973667,0.7112 -0.973667,1.38007 0,0.87207 0.778934,1.48167 1.8288,1.48167 z m 0.3556,-3.14114 c -0.601133,-0.23706 -1.083733,-0.47413 -1.083733,-1.016 0,-0.46566 0.321733,-0.7366 0.7366,-0.7366 0.499533,0 0.795867,0.34714 0.795867,0.82127 0,0.33867 -0.160867,0.64347 -0.448734,0.93133 z m -0.338666,2.44687 c -0.550334,0 -0.9906,-0.3556 -0.9906,-0.889 0,-0.41487 0.245533,-0.762 0.5842,-1.00753 0.728133,0.29633 1.2954,0.508 1.2954,1.0922 0,0.49953 -0.372534,0.80433 -0.889,0.80433 z" />
    </g>
    <g
       id="text1010-0-8-29"
       style="font-style:normal;font-variant:normal;font-weight:bold;font-stretch:normal;font-size:10.58333302px;line-height:6.61458349px;font-family:'Source Sans Pro';-inkscape-font-specification:'Source Sans Pro Bold';letter-spacing:0px;word-spacing:0px;fill:none;stroke:#000000;stroke-width:0.26458335px;stroke-linecap:butt;stroke-linejoin:miter;stroke-opacity:1"
       transform="rotate(4.3098803)"
       aria-label="5">
      <path
         id="path68"
         style="font-style:normal;font-variant:normal;font-weight:600;font-stretch:normal;font-size:8.46666718px;font-family:'Source Sans Pro';-inkscape-font-specification:'Source Sans Pro Semi-Bold';fill:#001030;fill-opacity:0.50196078;stroke:none;stroke-width:0.26458335px;stroke-opacity:1"
         d="m 45.9105,289.5264 c 0.9906,0 1.896534,-0.67733 1.896534,-1.8542 0,-1.15993 -0.770467,-1.68486 -1.693334,-1.68486 -0.2794,0 -0.4826,0.0677 -0.7112,0.1778 l 0.110067,-1.30387 h 2.032 V 284.04 H 44.6659 l -0.160867,2.65854 0.465667,0.29633 c 0.321733,-0.21167 0.516467,-0.3048 0.8636,-0.3048 0.592667,0 0.9906,0.36407 0.9906,1.00753 0,0.65194 -0.440267,1.03294 -1.0414,1.03294 -0.541867,0 -0.9398,-0.27094 -1.261533,-0.57574 l -0.448734,0.62654 c 0.397934,0.39793 0.9652,0.74506 1.837267,0.74506 z" />
    </g>
    <g
       id="text1010-0-8-29-8"
       style="font-style:normal;font-variant:normal;font-weight:bold;font-stretch:normal;font-size:10.58333302px;line-height:6.61458349px;font-family:'Source Sans Pro';-inkscape-font-specification:'Source Sans Pro Bold';letter-spacing:0px;word-spacing:0px;fill:#001030;fill-opacity:0.37647059;stroke:#000000;stroke-width:0.26458335px;stroke-linecap:butt;stroke-linejoin:miter;stroke-opacity:1"
       aria-label="3">
      <path
         id="path71"
         style="font-style:normal;font-variant:normal;font-weight:600;font-stretch:normal;font-size:8.46666718px;font-family:'Source Sans Pro';-inkscape-font-specification:'Source Sans Pro Semi-Bold';fill:#001030;fill-opacity:0.37647059;stroke:none;stroke-width:0.26458335px;stroke-opacity:1"
         d="m 9.8858915,293.45985 c 1.0329335,0 1.8880665,-0.57574 1.8880665,-1.55787 0,-0.7112 -0.4826,-1.1684 -1.1176,-1.33773 v -0.0339 c 0.5842,-0.2286 0.9398,-0.635 0.9398,-1.23613 0,-0.9144 -0.7112,-1.4224 -1.7441332,-1.4224 -0.6434667,0 -1.1599334,0.27093 -1.6171334,0.67733 l 0.4995334,0.60113 c 0.3302,-0.3048 0.6604,-0.508 1.0837334,-0.508 0.4910668,0 0.7958668,0.27094 0.7958668,0.71967 0,0.49953 -0.347133,0.8636 -1.4054669,0.8636 v 0.7112 c 1.2276669,0 1.5832669,0.3556 1.5832669,0.9144 0,0.508 -0.4064,0.8128 -0.9906002,0.8128 -0.5418667,0 -0.9567334,-0.26247 -1.2784667,-0.59267 l -0.4656667,0.62654 c 0.381,0.42333 0.9567334,0.762 1.8288001,0.762 z" />
    </g>
    <g
       id="text1010-0-8-29-5"
       style="font-style:normal;font-variant:normal;font-weight:bold;font-stretch:normal;font-size:10.58333302px;line-height:6.61458349px;font-family:'Source Sans Pro';-inkscape-font-specification:'Source Sans Pro Bold';letter-spacing:0px;word-spacing:0px;fill:none;stroke:#000000;stroke-width:0.26458335px;stroke-linecap:butt;stroke-linejoin:miter;stroke-opacity:1"
       transform="rotate(-11.351956)"
       aria-label="0">
      <path
         id="path74"
         style="font-style:normal;font-variant:normal;font-weight:600;font-stretch:normal;font-size:8.46666718px;font-family:'Source Sans Pro';-inkscape-font-specification:'Source Sans Pro Semi-Bold';fill:#001030;fill-opacity:0.25098039;stroke:none;stroke-width:0.26458335px;stroke-opacity:1"
         d="m -51.604307,276.75568 c 1.1176,0 1.8288,-0.99906 1.8288,-2.8194 0,-1.81186 -0.7112,-2.7686 -1.8288,-2.7686 -1.117601,0 -1.828801,0.94827 -1.828801,2.7686 0,1.82034 0.7112,2.8194 1.828801,2.8194 z m 0,-0.762 c -0.516467,0 -0.897467,-0.5334 -0.897467,-2.0574 0,-1.524 0.381,-2.0066 0.897467,-2.0066 0.524933,0 0.897466,0.4826 0.897466,2.0066 0,1.524 -0.372533,2.0574 -0.897466,2.0574 z" />
    </g>
    <g
       id="text1010-0-8-29-58"
       style="font-style:normal;font-variant:normal;font-weight:bold;font-stretch:normal;font-size:10.58333302px;line-height:6.61458349px;font-family:'Source Sans Pro';-inkscape-font-specification:'Source Sans Pro Bold';letter-spacing:0px;word-spacing:0px;fill:none;stroke:#000000;stroke-width:0.26458335px;stroke-linecap:butt;stroke-linejoin:miter;stroke-opacity:1"
       transform="rotate(22.5062)"
       aria-label="0">
      <path
         id="path77"
         style="font-style:normal;font-variant:normal;font-weight:600;font-stretch:normal;font-size:8.46666718px;font-family:'Source Sans Pro';-inkscape-font-specification:'Source Sans Pro Semi-Bold';fill:#001030;fill-opacity:0.1254902;stroke:none;stroke-width:0.26458335px;stroke-opacity:1"
         d="m 118.95939,243.18206 c 1.1176,0 1.8288,-0.99907 1.8288,-2.8194 0,-1.81187 -0.7112,-2.7686 -1.8288,-2.7686 -1.1176,0 -1.8288,0.94827 -1.8288,2.7686 0,1.82033 0.7112,2.8194 1.8288,2.8194 z m 0,-0.762 c -0.51647,0 -0.89747,-0.5334 -0.89747,-2.0574 0,-1.524 0.381,-2.0066 0.89747,-2.0066 0.52493,0 0.89747,0.4826 0.89747,2.0066 0,1.524 -0.37254,2.0574 -0.89747,2.0574 z" />
    </g>
    <g
       id="text1010-0-8-29-6"
       style="font-style:normal;font-variant:normal;font-weight:bold;font-stretch:normal;font-size:10.58333302px;line-height:6.61458349px;font-family:'Source Sans Pro';-inkscape-font-specification:'Source Sans Pro Bold';letter-spacing:0px;word-spacing:0px;fill:none;stroke:#000000;stroke-width:0.26458335px;stroke-linecap:butt;stroke-linejoin:miter;stroke-opacity:1"
       transform="rotate(8.8469635)"
       aria-label="7">
      <path
         id="path80"
         style="font-style:normal;font-variant:normal;font-weight:600;font-stretch:normal;font-size:8.46666718px;font-family:'Source Sans Pro';-inkscape-font-specification:'Source Sans Pro Semi-Bold';fill:#001030;fill-opacity:0.0627451;stroke:none;stroke-width:0.26458335px;stroke-opacity:1"
         d="m 73.416617,276.81506 h 0.9906 c 0.09313,-2.09973 0.313267,-3.2258 1.5748,-4.79213 v -0.59267 H 72.36675 v 0.82127 h 2.548467 c -1.0414,1.4478 -1.405467,2.65007 -1.4986,4.56353 z" />
    </g>
  </g>
</svg>
