<?xml version="1.0" encoding="UTF-8"?>
<!-- Created with Inkscape (http://www.inkscape.org/) -->
<svg width="128" height="128" version="1.1" viewBox="0 0 33.866666 33.866668" xmlns="http://www.w3.org/2000/svg" xmlns:cc="http://creativecommons.org/ns#" xmlns:dc="http://purl.org/dc/elements/1.1/" xmlns:rdf="http://www.w3.org/1999/02/22-rdf-syntax-ns#">
 <metadata>
  <rdf:RDF>
   <cc:Work rdf:about="">
    <dc:format>image/svg+xml</dc:format>
    <dc:type rdf:resource="http://purl.org/dc/dcmitype/StillImage"/>
    <dc:title/>
   </cc:Work>
  </rdf:RDF>
 </metadata>
 <g transform="translate(0 -263.13)">
  <path d="m33.867 280.07a16.933 16.933 0 0 1 -16.933 16.933 16.933 16.933 0 0 1 -16.933 -16.933 16.933 16.933 0 0 1 16.933 -16.933 16.933 16.933 0 0 1 16.933 16.933z" fill="#ffffc0"/>
  <g fill="none" stroke="#000" stroke-width=".26458px">
   <g aria-label="6">
    <path d="m14.471 284.07c2.2013 0 4.0358-1.4676 4.0358-3.9624 0-2.4948-1.5409-3.5955-3.5221-3.5955-0.62371 0-1.6143 0.40358-2.183 1.1557 0.12841-2.3481 1.0089-3.1369 2.1463-3.1369 0.6604 0 1.3942 0.40358 1.7611 0.80716l1.651-1.8711c-0.77047-0.77047-1.9812-1.4676-3.6322-1.4676-2.4948 0-4.8062 2.0179-4.8062 6.2371s2.3114 5.8335 4.5494 5.8335zm-0.07338-2.3481c-0.56868 0-1.2658-0.38524-1.5226-2.0179 0.36689-0.69709 0.93557-0.9906 1.4859-0.9906 0.6604 0 1.2841 0.27516 1.2841 1.3942 0 1.2291-0.58702 1.6143-1.2474 1.6143z" fill="#001030" stroke="none"/>
   </g>
   <g transform="rotate(15.515)" aria-label="2">
    <path d="m98.035 267.95h5.0461v-1.3998h-1.445c-0.33867 0-0.83538 0.0452-1.1966 0.0903 1.1628-1.2192 2.2916-2.5061 2.2916-3.714 0-1.3772-0.95955-2.2804-2.3707-2.2804-1.0273 0-1.6933 0.38382-2.4045 1.1402l0.90311 0.89182c0.36124-0.38382 0.75636-0.73378 1.2756-0.73378 0.62089 0 1.016 0.38383 1.016 1.0837 0 1.016-1.2869 2.2465-3.1157 3.9737z" fill="#001030" fill-opacity=".97255" stroke="none"/>
   </g>
   <g transform="rotate(-11.033)" aria-label="8">
    <path d="m-38.92 290.76c1.2742 0 2.1237-0.74083 2.1237-1.7088 0-0.83962-0.50377-1.3039-1.0866-1.6298v-0.0395c0.40499-0.29633 0.83961-0.81985 0.83961-1.4422 0-1.0174-0.72108-1.699-1.8471-1.699-1.0866 0-1.8965 0.65193-1.8965 1.6693 0 0.66181 0.38523 1.1261 0.86924 1.4718v0.0395c-0.59267 0.31609-1.1359 0.82974-1.1359 1.6101 0 1.0174 0.90876 1.7286 2.1336 1.7286zm0.41487-3.6646c-0.70132-0.27658-1.2644-0.55316-1.2644-1.1853 0-0.54328 0.37536-0.85936 0.85937-0.85936 0.58279 0 0.92851 0.40498 0.92851 0.95814 0 0.39511-0.18768 0.75071-0.52352 1.0866zm-0.39511 2.8547c-0.64206 0-1.1557-0.41486-1.1557-1.0372 0-0.48401 0.28646-0.889 0.68157-1.1755 0.84949 0.34572 1.5113 0.59267 1.5113 1.2742 0 0.58279-0.43462 0.93839-1.0372 0.93839z" fill="#001030" fill-opacity=".94118" stroke="none"/>
   </g>
   <g transform="rotate(6.5008)" aria-label="3">
    <path d="m39.302 283.64c1.0329 0 1.8881-0.57573 1.8881-1.5579 0-0.7112-0.4826-1.1684-1.1176-1.3377v-0.0339c0.5842-0.2286 0.9398-0.635 0.9398-1.2361 0-0.9144-0.7112-1.4224-1.7441-1.4224-0.64347 0-1.1599 0.27093-1.6171 0.67733l0.49953 0.60114c0.3302-0.3048 0.6604-0.508 1.0837-0.508 0.49107 0 0.79587 0.27093 0.79587 0.71967 0 0.49953-0.34713 0.8636-1.4055 0.8636v0.7112c1.2277 0 1.5833 0.3556 1.5833 0.9144 0 0.508-0.4064 0.8128-0.9906 0.8128-0.54187 0-0.95673-0.26247-1.2785-0.59267l-0.46567 0.62653c0.381 0.42334 0.95673 0.762 1.8288 0.762z" fill="#001030" fill-opacity=".87843" stroke="none"/>
   </g>
   <g transform="rotate(8.356)" aria-label="1">
    <path d="m46.405 268.9h3.2427v-0.79587h-1.0583v-4.5889h-0.72813c-0.33867 0.2032-0.7112 0.33866-1.2446 0.44026v0.6096h0.9906v3.5391h-1.2023z" fill="#001030" fill-opacity=".75294" stroke="none"/>
   </g>
   <g transform="rotate(12.861)" aria-label="8">
    <path d="m85.036 261.63c1.0922 0 1.8203-0.635 1.8203-1.4647 0-0.71967-0.4318-1.1176-0.93133-1.397v-0.0339c0.34713-0.254 0.71967-0.70273 0.71967-1.2361 0-0.87207-0.61807-1.4563-1.5833-1.4563-0.93133 0-1.6256 0.5588-1.6256 1.4309 0 0.56726 0.3302 0.9652 0.74507 1.2615v0.0339c-0.508 0.27093-0.97367 0.7112-0.97367 1.3801 0 0.87207 0.77893 1.4817 1.8288 1.4817zm0.3556-3.1411c-0.60113-0.23707-1.0837-0.47414-1.0837-1.016 0-0.46567 0.32173-0.7366 0.7366-0.7366 0.49953 0 0.79587 0.34713 0.79587 0.82126 0 0.33867-0.16087 0.64347-0.44873 0.93134zm-0.33867 2.4469c-0.55033 0-0.9906-0.3556-0.9906-0.889 0-0.41486 0.24553-0.762 0.5842-1.0075 0.72813 0.29633 1.2954 0.508 1.2954 1.0922 0 0.49953-0.37253 0.80433-0.889 0.80433z" fill="#001030" fill-opacity=".62745" stroke="none"/>
   </g>
   <g transform="rotate(4.3099)" aria-label="5">
    <path d="m46.341 289.49c0.9906 0 1.8965-0.67734 1.8965-1.8542 0-1.1599-0.77047-1.6849-1.6933-1.6849-0.2794 0-0.4826 0.0677-0.7112 0.1778l0.11007-1.3039h2.032v-0.82127h-2.8787l-0.16087 2.6585 0.46567 0.29633c0.32173-0.21167 0.51647-0.3048 0.8636-0.3048 0.59267 0 0.9906 0.36407 0.9906 1.0075 0 0.65194-0.44027 1.0329-1.0414 1.0329-0.54187 0-0.9398-0.27094-1.2615-0.57574l-0.44873 0.62654c0.39793 0.39793 0.9652 0.74507 1.8373 0.74507z" fill="#001030" fill-opacity=".50196" stroke="none"/>
   </g>
  </g>
  <g fill="#001030" fill-opacity=".37647" stroke="#000" stroke-width=".26458px" aria-label="3">
   <path d="m9.8859 293.46c1.0329 0 1.8881-0.57574 1.8881-1.5579 0-0.7112-0.4826-1.1684-1.1176-1.3377v-0.0339c0.5842-0.2286 0.9398-0.635 0.9398-1.2361 0-0.9144-0.7112-1.4224-1.7441-1.4224-0.64347 0-1.1599 0.27093-1.6171 0.67733l0.49953 0.60113c0.3302-0.3048 0.6604-0.508 1.0837-0.508 0.49107 0 0.79587 0.27094 0.79587 0.71967 0 0.49953-0.34713 0.8636-1.4055 0.8636v0.7112c1.2277 0 1.5833 0.3556 1.5833 0.9144 0 0.508-0.4064 0.8128-0.9906 0.8128-0.54187 0-0.95673-0.26247-1.2785-0.59267l-0.46567 0.62654c0.381 0.42333 0.95673 0.762 1.8288 0.762z" fill="#001030" fill-opacity=".37647" stroke="none"/>
  </g>
  <g fill="none" stroke="#000" stroke-width=".26458px">
   <g transform="rotate(-11.352)" aria-label="0">
    <path d="m-51.471 276.17c1.1176 0 1.8288-0.99907 1.8288-2.8194 0-1.8119-0.7112-2.7686-1.8288-2.7686s-1.8288 0.94827-1.8288 2.7686 0.7112 2.8194 1.8288 2.8194zm0-0.762c-0.51647 0-0.89747-0.5334-0.89747-2.0574s0.381-2.0066 0.89747-2.0066c0.52493 0 0.89747 0.4826 0.89747 2.0066s-0.37253 2.0574-0.89747 2.0574z" fill="#001030" fill-opacity=".25098" stroke="none"/>
   </g>
   <g transform="rotate(22.506)" aria-label="7">
    <path d="m118.21 243.08h0.9906c0.0931-2.0997 0.31327-3.2258 1.5748-4.7921v-0.59267h-3.6153v0.82127h2.5485c-1.0414 1.4478-1.4055 2.6501-1.4986 4.5635z" fill="#001030" fill-opacity=".12549" stroke="none"/>
   </g>
   <g transform="rotate(-9.7273)" aria-label="1">
    <path d="m-18.299 282.79h3.2427v-0.79587h-1.0583v-4.5889h-0.72813c-0.33867 0.2032-0.7112 0.33867-1.2446 0.44027v0.6096h0.9906v3.5391h-1.2023z" fill="#001030" fill-opacity=".062745" stroke="none"/>
   </g>
  </g>
  <g fill="#241030" aria-label=".">
   <path d="m20.92 283.98c0.65476 0 1.1289-0.51929 1.1289-1.174 0-0.65476-0.47413-1.174-1.1289-1.174-0.65476 0-1.1289 0.51929-1.1289 1.174 0 0.65475 0.47413 1.174 1.1289 1.174z" fill="#001030"/>
  </g>
 </g>
</svg>
